<?xml version="1.0" encoding="UTF-8" standalone="no"?>
<!-- Created with Inkscape (http://www.inkscape.org/) -->

<svg
   xmlns:dc="http://purl.org/dc/elements/1.1/"
   xmlns:cc="http://creativecommons.org/ns#"
   xmlns:rdf="http://www.w3.org/1999/02/22-rdf-syntax-ns#"
   xmlns:svg="http://www.w3.org/2000/svg"
   xmlns="http://www.w3.org/2000/svg"
   xmlns:sodipodi="http://sodipodi.sourceforge.net/DTD/sodipodi-0.dtd"
   xmlns:inkscape="http://www.inkscape.org/namespaces/inkscape"
   width="1980"
   height="1980"
   viewBox="0 0 1980 1980"
   id="svg2"
   version="1.1"
   inkscape:version="0.91 r13725"
   sodipodi:docname="favicon.svg">
  <defs
     id="defs4" />
  <sodipodi:namedview
     id="base"
     pagecolor="#ffffff"
     bordercolor="#666666"
     borderopacity="1.0"
     inkscape:pageopacity="0.0"
     inkscape:pageshadow="2"
     inkscape:zoom="0.35355339"
     inkscape:cx="902.11619"
     inkscape:cy="1059.4057"
     inkscape:document-units="px"
     inkscape:current-layer="layer1"
     showgrid="false"
     units="px"
     inkscape:window-width="1855"
     inkscape:window-height="1056"
     inkscape:window-x="65"
     inkscape:window-y="24"
     inkscape:window-maximized="1" />
  <metadata
     id="metadata7">
    <rdf:RDF>
      <cc:Work
         rdf:about="">
        <dc:format>image/svg+xml</dc:format>
        <dc:type
           rdf:resource="http://purl.org/dc/dcmitype/StillImage" />
        <dc:title></dc:title>
      </cc:Work>
    </rdf:RDF>
  </metadata>
  <g
     inkscape:label="Layer 1"
     inkscape:groupmode="layer"
     id="layer1"
     transform="translate(0,927.63774)">
    <circle
       style="opacity:0.36499993;fill:#dcb320;fill-opacity:1;stroke:none;stroke-width:0.2;stroke-miterlimit:4;stroke-dasharray:none;stroke-opacity:1"
       id="path3336"
       cx="990"
       cy="62.362259"
       r="990" />
    <circle
       style="opacity:1;fill:#000000;fill-opacity:1;stroke:none;stroke-width:6;stroke-miterlimit:4;stroke-dasharray:none;stroke-opacity:1"
       id="path3338"
       cx="625.79468"
       cy="-308.09"
       r="167.14285" />
    <circle
       style="opacity:1;fill:#000000;fill-opacity:1;stroke:none;stroke-width:6;stroke-miterlimit:4;stroke-dasharray:none;stroke-opacity:1"
       id="path3338-3"
       cx="1320.4882"
       cy="-308.09"
       r="167.14285"
       inkscape:transform-center-x="777.14286"
       inkscape:transform-center-y="42.857143" />
    <path
       sodipodi:type="spiral"
       style="fill:none;fill-opacity:1;fill-rule:evenodd;stroke:#ff607a;stroke-width:10;stroke-linecap:butt;stroke-linejoin:miter;stroke-miterlimit:4;stroke-dasharray:none;stroke-opacity:1"
       id="path4157-6"
       sodipodi:cx="-352.94016"
       sodipodi:cy="194.05327"
       sodipodi:expansion="1"
       sodipodi:revolution="3"
       sodipodi:radius="197.3291"
       sodipodi:argument="-17.878809"
       sodipodi:t0="0"
       d="m -352.94016,194.05327 c 5.58685,8.1654 -8.25044,11.55947 -13.57143,9.2857 -14.41955,-6.16178 -13.22477,-25.88725 -4.99997,-36.42857 14.71224,-18.85595 43.20873,-16.04497 59.28571,-0.71424 23.59363,22.49846 18.99764,60.78284 -3.57149,82.14285 -30.08111,28.46953 -78.44897,22.0097 -105,-7.85723 -33.41176,-37.58447 -25.05306,-96.15949 12.14297,-127.85713 45.04937,-38.390082 113.89516,-28.114666 150.71427,16.4287 43.39005,52.49281 31.18774,131.6465 -20.71443,173.57141 -59.92312,48.40396 -149.40832,34.26847 -196.42855,-25.00017 -53.42737,-67.34479 -37.35455,-167.17747 29.2859,-219.285683 74.7605,-58.45753506 184.95199,-40.444498 242.14282,33.57163 63.49266,82.171933 43.53735,202.730543 -37.85736,264.999963"
       transform="scale(-1,1)" />
    <path
       style="fill:none;fill-rule:evenodd;stroke:#000000;stroke-width:41.93888092;stroke-linecap:butt;stroke-linejoin:miter;stroke-miterlimit:4;stroke-dasharray:none;stroke-opacity:1"
       d="M 484.31286,501.68 C 1029.3481,1009.1061 1542.61,483.47631 1542.61,483.47631"
       id="path4174"
       inkscape:connector-curvature="0" />
    <path
       sodipodi:type="spiral"
       style="fill:none;fill-opacity:1;fill-rule:evenodd;stroke:#ff607a;stroke-width:10;stroke-linecap:butt;stroke-linejoin:miter;stroke-miterlimit:4;stroke-dasharray:none;stroke-opacity:1"
       id="path4157-6-7"
       sodipodi:cx="1685.1211"
       sodipodi:cy="194.05327"
       sodipodi:expansion="1"
       sodipodi:revolution="3"
       sodipodi:radius="197.3291"
       sodipodi:argument="-17.878809"
       sodipodi:t0="0"
       d="m 1685.1211,194.05327 c 5.5868,8.1654 -8.2505,11.55947 -13.5714,9.2857 -14.4196,-6.16178 -13.2248,-25.88725 -5,-36.42857 14.7122,-18.85595 43.2087,-16.04497 59.2857,-0.71424 23.5936,22.49846 18.9976,60.78284 -3.5715,82.14285 -30.0811,28.46953 -78.449,22.0097 -105,-7.85723 -33.4117,-37.58447 -25.053,-96.15949 12.143,-127.85713 45.0493,-38.390082 113.8951,-28.114666 150.7142,16.4287 43.3901,52.49281 31.1878,131.6465 -20.7144,173.57141 -59.9231,48.40396 -149.4083,34.26847 -196.4285,-25.00017 -53.4274,-67.34479 -37.3546,-167.17747 29.2859,-219.285683 74.7605,-58.45753506 184.952,-40.444498 242.1428,33.57163 63.4927,82.171933 43.5373,202.730543 -37.8574,264.999963" />
  </g>
</svg>
